# xmcd
#
# Track frame offsets: 
#        150
#        15898
#        45705
#        63631
#        74517
#        100126
#        121859
#        154354
#        171853
#        194782
#        212562
#        229020
#        244493
#        254899
#        271572
#        294198
#        306088
#        320438
#        329343
#        337473
#
# Disc length: 4657 seconds
#
# Revision: 0
# Processed by: cddbd v1.5.2PL0 Copyright (c) Steve Scherf et al.
# Submitted via: ExactAudioCopyFreeDBPlugin 1.0
#
DISCID=34122f14
DTITLE=Various Artist - Oldie´s Jukebox Vol.2
DYEAR=2004
DGENRE=Oldies
TTITLE0=Kool and The Gang - Ladies Night
TTITLE1=James Brown - Sex Machine (live)
TTITLE2=Imagination - Just An Illusion
TTITLE3=Aretha Franklin - Respect
TTITLE4=Kool and The Gang - Cherish
TTITLE5=Pet Shop Boys - West End Girls
TTITLE6=Temptations - Papa Was A Rolling Stone
TTITLE7=Barry White - Can't Get Enough Of Your love
TTITLE8=The Commodores - Nightshift
TTITLE9=Phil Carmen - On My Way In L.A.
TTITLE10=Olivia Newton-John and John Travolta - Summer Nights
TTITLE11=Barry White - You're The First The Last My Everything
TTITLE12=Neil Sedaka - Oh, Carol
TTITLE13=Bob Marley and The Wailers - No Woman No Cry
TTITLE14=10 CC - Dreadlock Holiday
TTITLE15=5th Dimension - Up Up And Away
TTITLE16=Sailor - The Secretary
TTITLE17=Al Jarreau - Ain't No Sunshine
TTITLE18=Janis Joplin - Mercedes Benz
TTITLE19=The Mamas and The Papas - California Dreamin'
EXTD=
EXTT0=
EXTT1=
EXTT2=
EXTT3=
EXTT4=
EXTT5=
EXTT6=
EXTT7=
EXTT8=
EXTT9=
EXTT10=
EXTT11=
EXTT12=
EXTT13=
EXTT14=
EXTT15=
EXTT16=
EXTT17=
EXTT18=
EXTT19=
PLAYORDER=
